<?xml version="1.0" encoding="UTF-8" standalone="no"?>
<!DOCTYPE svg PUBLIC "-//W3C//DTD SVG 1.1//EN"
 "http://www.w3.org/Graphics/SVG/1.1/DTD/svg11.dtd">
<!-- Generated by graphviz version 2.47.3 (20210619.1520)
 -->
<!-- Title: dependencies Pages: 1 -->
<svg width="412pt" height="247pt"
 viewBox="0.00 0.00 412.00 246.80" xmlns="http://www.w3.org/2000/svg" xmlns:xlink="http://www.w3.org/1999/xlink">
<g id="graph0" class="graph" transform="scale(1 1) rotate(0) translate(4 242.8)">
<title>dependencies</title>
<polygon fill="white" stroke="transparent" points="-4,4 -4,-242.8 408,-242.8 408,4 -4,4"/>
<text text-anchor="middle" x="202" y="-8.2" font-family="sans-serif" font-size="14.00">dependencies</text>
<g id="clust1" class="cluster">
<title>cluster_CoreModule</title>
<polygon fill="none" stroke="black" stroke-dasharray="1,5" points="8,-32.8 8,-230.8 396,-230.8 396,-32.8 8,-32.8"/>
</g>
<g id="clust6" class="cluster">
<title>cluster_CoreModule_exports</title>
<polygon fill="none" stroke="black" points="74,-170.8 74,-222.8 330,-222.8 330,-170.8 74,-170.8"/>
</g>
<g id="clust5" class="cluster">
<title>cluster_CoreModule_imports</title>
<polygon fill="none" stroke="black" points="274,-40.8 274,-92.8 388,-92.8 388,-40.8 274,-40.8"/>
</g>
<g id="clust2" class="cluster">
<title>cluster_CoreModule_declarations</title>
<polygon fill="none" stroke="black" points="16,-40.8 16,-92.8 266,-92.8 266,-40.8 16,-40.8"/>
</g>
<!-- AppComponent -->
<g id="node1" class="node">
<title>AppComponent</title>
<polygon fill="#ffffb3" stroke="black" points="257.94,-84.8 152.06,-84.8 152.06,-48.8 257.94,-48.8 257.94,-84.8"/>
<text text-anchor="middle" x="205" y="-62.6" font-family="Times,serif" font-size="14.00">AppComponent</text>
</g>
<!-- CoreModule -->
<g id="node3" class="node">
<title>CoreModule</title>
<polygon fill="#8dd3c7" stroke="black" points="248.26,-149.8 245.26,-153.8 224.26,-153.8 221.26,-149.8 161.74,-149.8 161.74,-113.8 248.26,-113.8 248.26,-149.8"/>
<text text-anchor="middle" x="205" y="-127.6" font-family="Times,serif" font-size="14.00">CoreModule</text>
</g>
<!-- AppComponent&#45;&gt;CoreModule -->
<g id="edge1" class="edge">
<title>AppComponent&#45;&gt;CoreModule</title>
<path fill="none" stroke="black" d="M205,-84.91C205,-84.91 205,-103.79 205,-103.79"/>
<polygon fill="black" stroke="black" points="201.5,-103.79 205,-113.79 208.5,-103.79 201.5,-103.79"/>
</g>
<!-- ShellComponent -->
<g id="node2" class="node">
<title>ShellComponent</title>
<polygon fill="#ffffb3" stroke="black" points="134.11,-84.8 23.89,-84.8 23.89,-48.8 134.11,-48.8 134.11,-84.8"/>
<text text-anchor="middle" x="79" y="-62.6" font-family="Times,serif" font-size="14.00">ShellComponent</text>
</g>
<!-- ShellComponent&#45;&gt;CoreModule -->
<g id="edge2" class="edge">
<title>ShellComponent&#45;&gt;CoreModule</title>
<path fill="none" stroke="black" d="M108.12,-84.91C108.12,-104.14 108.12,-131.8 108.12,-131.8 108.12,-131.8 151.66,-131.8 151.66,-131.8"/>
<polygon fill="black" stroke="black" points="151.66,-135.3 161.66,-131.8 151.66,-128.3 151.66,-135.3"/>
</g>
<!-- AppComponent  -->
<g id="node5" class="node">
<title>AppComponent </title>
<polygon fill="#fb8072" stroke="black" points="322.44,-214.8 213.56,-214.8 213.56,-178.8 322.44,-178.8 322.44,-214.8"/>
<text text-anchor="middle" x="268" y="-192.6" font-family="Times,serif" font-size="14.00">AppComponent </text>
</g>
<!-- CoreModule&#45;&gt;AppComponent  -->
<g id="edge4" class="edge">
<title>CoreModule&#45;&gt;AppComponent </title>
<path fill="none" stroke="black" stroke-dasharray="5,2" d="M230.96,-149.91C230.96,-149.91 230.96,-168.79 230.96,-168.79"/>
<polygon fill="black" stroke="black" points="227.46,-168.79 230.96,-178.79 234.46,-168.79 227.46,-168.79"/>
</g>
<!-- ShellComponent  -->
<g id="node6" class="node">
<title>ShellComponent </title>
<polygon fill="#fb8072" stroke="black" points="195.61,-214.8 82.39,-214.8 82.39,-178.8 195.61,-178.8 195.61,-214.8"/>
<text text-anchor="middle" x="139" y="-192.6" font-family="Times,serif" font-size="14.00">ShellComponent </text>
</g>
<!-- CoreModule&#45;&gt;ShellComponent  -->
<g id="edge5" class="edge">
<title>CoreModule&#45;&gt;ShellComponent </title>
<path fill="none" stroke="black" stroke-dasharray="5,2" d="M178.71,-149.91C178.71,-149.91 178.71,-168.79 178.71,-168.79"/>
<polygon fill="black" stroke="black" points="175.21,-168.79 178.71,-178.79 182.21,-168.79 175.21,-168.79"/>
</g>
<!-- SharedModule -->
<g id="node4" class="node">
<title>SharedModule</title>
<polygon fill="#8dd3c7" stroke="black" points="380.42,-84.8 377.42,-88.8 356.42,-88.8 353.42,-84.8 281.58,-84.8 281.58,-48.8 380.42,-48.8 380.42,-84.8"/>
<text text-anchor="middle" x="331" y="-62.6" font-family="Times,serif" font-size="14.00">SharedModule</text>
</g>
<!-- SharedModule&#45;&gt;CoreModule -->
<g id="edge3" class="edge">
<title>SharedModule&#45;&gt;CoreModule</title>
<path fill="none" stroke="black" d="M302.13,-84.91C302.13,-104.14 302.13,-131.8 302.13,-131.8 302.13,-131.8 258.45,-131.8 258.45,-131.8"/>
<polygon fill="black" stroke="black" points="258.45,-128.3 248.45,-131.8 258.45,-135.3 258.45,-128.3"/>
</g>
</g>
</svg>
