<?xml version="1.0" encoding="UTF-8" standalone="no"?>
<!DOCTYPE svg PUBLIC "-//W3C//DTD SVG 1.1//EN"
 "http://www.w3.org/Graphics/SVG/1.1/DTD/svg11.dtd">
<!-- Generated by graphviz version 2.47.3 (20210619.1520)
 -->
<!-- Title: dependencies Pages: 1 -->
<svg width="1118pt" height="174pt"
 viewBox="0.00 0.00 1118.00 173.80" xmlns="http://www.w3.org/2000/svg" xmlns:xlink="http://www.w3.org/1999/xlink">
<g id="graph0" class="graph" transform="scale(1 1) rotate(0) translate(4 169.8)">
<title>dependencies</title>
<polygon fill="white" stroke="transparent" points="-4,4 -4,-169.8 1114,-169.8 1114,4 -4,4"/>
<text text-anchor="middle" x="555" y="-8.2" font-family="sans-serif" font-size="14.00">dependencies</text>
<g id="clust1" class="cluster">
<title>cluster_StatusModule</title>
<polygon fill="none" stroke="black" stroke-dasharray="1,5" points="8,-32.8 8,-157.8 1102,-157.8 1102,-32.8 8,-32.8"/>
</g>
<g id="clust2" class="cluster">
<title>cluster_StatusModule_declarations</title>
<polygon fill="none" stroke="black" points="295,-40.8 295,-92.8 1094,-92.8 1094,-40.8 295,-40.8"/>
</g>
<g id="clust8" class="cluster">
<title>cluster_StatusModule_imports</title>
<polygon fill="none" stroke="black" points="16,-40.8 16,-92.8 287,-92.8 287,-40.8 16,-40.8"/>
</g>
<!-- BlockDetailComponent -->
<g id="node1" class="node">
<title>BlockDetailComponent</title>
<polygon fill="#ffffb3" stroke="black" points="1086.48,-84.8 937.52,-84.8 937.52,-48.8 1086.48,-48.8 1086.48,-84.8"/>
<text text-anchor="middle" x="1012" y="-62.6" font-family="Times,serif" font-size="14.00">BlockDetailComponent</text>
</g>
<!-- StatusModule -->
<g id="node6" class="node">
<title>StatusModule</title>
<polygon fill="#8dd3c7" stroke="black" points="580.77,-149.8 577.77,-153.8 556.77,-153.8 553.77,-149.8 487.23,-149.8 487.23,-113.8 580.77,-113.8 580.77,-149.8"/>
<text text-anchor="middle" x="534" y="-127.6" font-family="Times,serif" font-size="14.00">StatusModule</text>
</g>
<!-- BlockDetailComponent&#45;&gt;StatusModule -->
<g id="edge1" class="edge">
<title>BlockDetailComponent&#45;&gt;StatusModule</title>
<path fill="none" stroke="black" d="M1012,-85.09C1012,-107.01 1012,-140.8 1012,-140.8 1012,-140.8 591.14,-140.8 591.14,-140.8"/>
<polygon fill="black" stroke="black" points="591.14,-137.3 581.14,-140.8 591.14,-144.3 591.14,-137.3"/>
</g>
<!-- BlockListComponent -->
<g id="node2" class="node">
<title>BlockListComponent</title>
<polygon fill="#ffffb3" stroke="black" points="919.05,-84.8 782.95,-84.8 782.95,-48.8 919.05,-48.8 919.05,-84.8"/>
<text text-anchor="middle" x="851" y="-62.6" font-family="Times,serif" font-size="14.00">BlockListComponent</text>
</g>
<!-- BlockListComponent&#45;&gt;StatusModule -->
<g id="edge2" class="edge">
<title>BlockListComponent&#45;&gt;StatusModule</title>
<path fill="none" stroke="black" d="M851,-84.91C851,-104.14 851,-131.8 851,-131.8 851,-131.8 590.77,-131.8 590.77,-131.8"/>
<polygon fill="black" stroke="black" points="590.77,-128.3 580.77,-131.8 590.77,-135.3 590.77,-128.3"/>
</g>
<!-- NodeDetailComponent -->
<g id="node3" class="node">
<title>NodeDetailComponent</title>
<polygon fill="#ffffb3" stroke="black" points="764.86,-84.8 619.14,-84.8 619.14,-48.8 764.86,-48.8 764.86,-84.8"/>
<text text-anchor="middle" x="692" y="-62.6" font-family="Times,serif" font-size="14.00">NodeDetailComponent</text>
</g>
<!-- NodeDetailComponent&#45;&gt;StatusModule -->
<g id="edge3" class="edge">
<title>NodeDetailComponent&#45;&gt;StatusModule</title>
<path fill="none" stroke="black" d="M692,-84.83C692,-101.2 692,-122.8 692,-122.8 692,-122.8 590.98,-122.8 590.98,-122.8"/>
<polygon fill="black" stroke="black" points="590.98,-119.3 580.98,-122.8 590.98,-126.3 590.98,-119.3"/>
</g>
<!-- NodeListComponent -->
<g id="node4" class="node">
<title>NodeListComponent</title>
<polygon fill="#ffffb3" stroke="black" points="600.93,-84.8 467.07,-84.8 467.07,-48.8 600.93,-48.8 600.93,-84.8"/>
<text text-anchor="middle" x="534" y="-62.6" font-family="Times,serif" font-size="14.00">NodeListComponent</text>
</g>
<!-- NodeListComponent&#45;&gt;StatusModule -->
<g id="edge4" class="edge">
<title>NodeListComponent&#45;&gt;StatusModule</title>
<path fill="none" stroke="black" d="M534,-84.91C534,-84.91 534,-103.79 534,-103.79"/>
<polygon fill="black" stroke="black" points="530.5,-103.79 534,-113.79 537.5,-103.79 530.5,-103.79"/>
</g>
<!-- NodeStatusComponent -->
<g id="node5" class="node">
<title>NodeStatusComponent</title>
<polygon fill="#ffffb3" stroke="black" points="448.88,-84.8 303.12,-84.8 303.12,-48.8 448.88,-48.8 448.88,-84.8"/>
<text text-anchor="middle" x="376" y="-62.6" font-family="Times,serif" font-size="14.00">NodeStatusComponent</text>
</g>
<!-- NodeStatusComponent&#45;&gt;StatusModule -->
<g id="edge5" class="edge">
<title>NodeStatusComponent&#45;&gt;StatusModule</title>
<path fill="none" stroke="black" d="M376,-84.83C376,-101.2 376,-122.8 376,-122.8 376,-122.8 477.02,-122.8 477.02,-122.8"/>
<polygon fill="black" stroke="black" points="477.02,-126.3 487.02,-122.8 477.02,-119.3 477.02,-126.3"/>
</g>
<!-- SharedModule -->
<g id="node7" class="node">
<title>SharedModule</title>
<polygon fill="#8dd3c7" stroke="black" points="279.42,-84.8 276.42,-88.8 255.42,-88.8 252.42,-84.8 180.58,-84.8 180.58,-48.8 279.42,-48.8 279.42,-84.8"/>
<text text-anchor="middle" x="230" y="-62.6" font-family="Times,serif" font-size="14.00">SharedModule</text>
</g>
<!-- SharedModule&#45;&gt;StatusModule -->
<g id="edge6" class="edge">
<title>SharedModule&#45;&gt;StatusModule</title>
<path fill="none" stroke="black" d="M230,-84.91C230,-104.14 230,-131.8 230,-131.8 230,-131.8 477.17,-131.8 477.17,-131.8"/>
<polygon fill="black" stroke="black" points="477.17,-135.3 487.17,-131.8 477.17,-128.3 477.17,-135.3"/>
</g>
<!-- StatusRoutingModule -->
<g id="node8" class="node">
<title>StatusRoutingModule</title>
<polygon fill="#8dd3c7" stroke="black" points="162.39,-84.8 159.39,-88.8 138.39,-88.8 135.39,-84.8 23.61,-84.8 23.61,-48.8 162.39,-48.8 162.39,-84.8"/>
<text text-anchor="middle" x="93" y="-62.6" font-family="Times,serif" font-size="14.00">StatusRoutingModule</text>
</g>
<!-- StatusRoutingModule&#45;&gt;StatusModule -->
<g id="edge7" class="edge">
<title>StatusRoutingModule&#45;&gt;StatusModule</title>
<path fill="none" stroke="black" d="M93,-85.09C93,-107.01 93,-140.8 93,-140.8 93,-140.8 477.22,-140.8 477.22,-140.8"/>
<polygon fill="black" stroke="black" points="477.22,-144.3 487.22,-140.8 477.22,-137.3 477.22,-144.3"/>
</g>
</g>
</svg>
