<?xml version="1.0" encoding="UTF-8" standalone="no"?>
<!DOCTYPE svg PUBLIC "-//W3C//DTD SVG 1.1//EN"
 "http://www.w3.org/Graphics/SVG/1.1/DTD/svg11.dtd">
<!-- Generated by graphviz version 2.47.3 (20210619.1520)
 -->
<!-- Title: dependencies Pages: 1 -->
<svg width="1806pt" height="312pt"
 viewBox="0.00 0.00 1806.00 311.80" xmlns="http://www.w3.org/2000/svg" xmlns:xlink="http://www.w3.org/1999/xlink">
<g id="graph0" class="graph" transform="scale(1 1) rotate(0) translate(4 307.8)">
<title>dependencies</title>
<polygon fill="white" stroke="transparent" points="-4,4 -4,-307.8 1802,-307.8 1802,4 -4,4"/>
<text text-anchor="middle" x="899" y="-8.2" font-family="sans-serif" font-size="14.00">dependencies</text>
<g id="clust1" class="cluster">
<title>cluster_AppModule</title>
<polygon fill="none" stroke="black" stroke-dasharray="1,5" points="420,-32.8 420,-295.8 806,-295.8 806,-32.8 420,-32.8"/>
</g>
<g id="clust3" class="cluster">
<title>cluster_AppModule_imports</title>
<polygon fill="none" stroke="black" points="428,-40.8 428,-157.8 798,-157.8 798,-40.8 428,-40.8"/>
</g>
<g id="clust5" class="cluster">
<title>cluster_AppModule_bootstrap</title>
<polygon fill="none" stroke="black" points="454,-235.8 454,-287.8 578,-287.8 578,-235.8 454,-235.8"/>
</g>
<g id="clust13" class="cluster">
<title>cluster_CoreModule</title>
<polygon fill="none" stroke="black" stroke-dasharray="1,5" points="8,-32.8 8,-100.8 412,-100.8 412,-32.8 8,-32.8"/>
</g>
<g id="clust14" class="cluster">
<title>cluster_CoreModule_declarations</title>
<polygon fill="none" stroke="black" points="154,-40.8 154,-92.8 404,-92.8 404,-40.8 154,-40.8"/>
</g>
<g id="clust18" class="cluster">
<title>cluster_CoreModule_exports</title>
<polygon fill="none" stroke="black" points="16,-40.8 16,-92.8 146,-92.8 146,-40.8 16,-40.8"/>
</g>
<g id="clust27" class="cluster">
<title>cluster_StatusModule</title>
<polygon fill="none" stroke="black" stroke-dasharray="1,5" points="814,-32.8 814,-157.8 1790,-157.8 1790,-32.8 814,-32.8"/>
</g>
<g id="clust28" class="cluster">
<title>cluster_StatusModule_declarations</title>
<polygon fill="none" stroke="black" points="984,-40.8 984,-92.8 1782,-92.8 1782,-40.8 984,-40.8"/>
</g>
<g id="clust34" class="cluster">
<title>cluster_StatusModule_imports</title>
<polygon fill="none" stroke="black" points="822,-40.8 822,-92.8 976,-92.8 976,-40.8 822,-40.8"/>
</g>
<!-- !environment -->
<g id="node1" class="node">
<title>!environment</title>
<polygon fill="#8dd3c7" stroke="black" points="643.92,-84.8 640.92,-88.8 619.92,-88.8 616.92,-84.8 552.08,-84.8 552.08,-48.8 643.92,-48.8 643.92,-84.8"/>
<text text-anchor="middle" x="598" y="-62.6" font-family="Times,serif" font-size="14.00">!environment</text>
</g>
<!-- AppModule -->
<g id="node5" class="node">
<title>AppModule</title>
<polygon fill="#8dd3c7" stroke="black" points="582.66,-214.8 579.66,-218.8 558.66,-218.8 555.66,-214.8 499.34,-214.8 499.34,-178.8 582.66,-178.8 582.66,-214.8"/>
<text text-anchor="middle" x="541" y="-192.6" font-family="Times,serif" font-size="14.00">AppModule</text>
</g>
<!-- !environment&#45;&gt;AppModule -->
<g id="edge1" class="edge">
<title>!environment&#45;&gt;AppModule</title>
<path fill="none" stroke="black" d="M567.56,-84.88C567.56,-84.88 567.56,-168.46 567.56,-168.46"/>
<polygon fill="black" stroke="black" points="564.06,-168.46 567.56,-178.46 571.06,-168.46 564.06,-168.46"/>
</g>
<!-- AppRoutingModule -->
<g id="node2" class="node">
<title>AppRoutingModule</title>
<polygon fill="#8dd3c7" stroke="black" points="790.27,-84.8 787.27,-88.8 766.27,-88.8 763.27,-84.8 661.73,-84.8 661.73,-48.8 790.27,-48.8 790.27,-84.8"/>
<text text-anchor="middle" x="726" y="-62.6" font-family="Times,serif" font-size="14.00">AppRoutingModule</text>
</g>
<!-- AppRoutingModule&#45;&gt;AppModule -->
<g id="edge2" class="edge">
<title>AppRoutingModule&#45;&gt;AppModule</title>
<path fill="none" stroke="black" d="M726,-84.88C726,-120.6 726,-196.8 726,-196.8 726,-196.8 592.98,-196.8 592.98,-196.8"/>
<polygon fill="black" stroke="black" points="592.98,-193.3 582.98,-196.8 592.98,-200.3 592.98,-193.3"/>
</g>
<!-- CoreModule -->
<g id="node3" class="node">
<title>CoreModule</title>
<polygon fill="#8dd3c7" stroke="black" points="522.26,-149.8 519.26,-153.8 498.26,-153.8 495.26,-149.8 435.74,-149.8 435.74,-113.8 522.26,-113.8 522.26,-149.8"/>
<text text-anchor="middle" x="479" y="-127.6" font-family="Times,serif" font-size="14.00">CoreModule</text>
</g>
<!-- CoreModule&#45;&gt;AppModule -->
<g id="edge3" class="edge">
<title>CoreModule&#45;&gt;AppModule</title>
<path fill="none" stroke="black" d="M510.78,-149.91C510.78,-149.91 510.78,-168.79 510.78,-168.79"/>
<polygon fill="black" stroke="black" points="507.28,-168.79 510.78,-178.79 514.28,-168.79 507.28,-168.79"/>
</g>
<!-- AppComponent  -->
<g id="node6" class="node">
<title>AppComponent </title>
<polygon fill="#80b1d3" stroke="black" points="570.44,-279.8 461.56,-279.8 461.56,-243.8 570.44,-243.8 570.44,-279.8"/>
<text text-anchor="middle" x="516" y="-257.6" font-family="Times,serif" font-size="14.00">AppComponent </text>
</g>
<!-- CoreModule&#45;&gt;AppComponent  -->
<g id="edge9" class="edge">
<title>CoreModule&#45;&gt;AppComponent </title>
<path fill="none" stroke="black" stroke-dasharray="5,2" d="M480.35,-149.88C480.35,-149.88 480.35,-233.46 480.35,-233.46"/>
<polygon fill="black" stroke="black" points="476.85,-233.46 480.35,-243.46 483.85,-233.46 476.85,-233.46"/>
</g>
<!-- ShellComponent  -->
<g id="node9" class="node">
<title>ShellComponent </title>
<polygon fill="#fb8072" stroke="black" points="137.61,-84.8 24.39,-84.8 24.39,-48.8 137.61,-48.8 137.61,-84.8"/>
<text text-anchor="middle" x="81" y="-62.6" font-family="Times,serif" font-size="14.00">ShellComponent </text>
</g>
<!-- CoreModule&#45;&gt;ShellComponent  -->
<g id="edge10" class="edge">
<title>CoreModule&#45;&gt;ShellComponent </title>
<path fill="none" stroke="black" stroke-dasharray="5,2" d="M435.65,-140.8C332.5,-140.8 81,-140.8 81,-140.8 81,-140.8 81,-95.09 81,-95.09"/>
<polygon fill="black" stroke="black" points="84.5,-95.09 81,-85.09 77.5,-95.09 84.5,-95.09"/>
</g>
<!-- SharedModule -->
<g id="node4" class="node">
<title>SharedModule</title>
<polygon fill="#8dd3c7" stroke="black" points="534.42,-84.8 531.42,-88.8 510.42,-88.8 507.42,-84.8 435.58,-84.8 435.58,-48.8 534.42,-48.8 534.42,-84.8"/>
<text text-anchor="middle" x="485" y="-62.6" font-family="Times,serif" font-size="14.00">SharedModule</text>
</g>
<!-- SharedModule&#45;&gt;CoreModule -->
<g id="edge8" class="edge">
<title>SharedModule&#45;&gt;CoreModule</title>
<path fill="none" stroke="black" d="M479.08,-84.91C479.08,-84.91 479.08,-103.79 479.08,-103.79"/>
<polygon fill="black" stroke="black" points="475.58,-103.79 479.08,-113.79 482.58,-103.79 475.58,-103.79"/>
</g>
<!-- SharedModule&#45;&gt;AppModule -->
<g id="edge4" class="edge">
<title>SharedModule&#45;&gt;AppModule</title>
<path fill="none" stroke="black" d="M526.32,-84.88C526.32,-84.88 526.32,-168.46 526.32,-168.46"/>
<polygon fill="black" stroke="black" points="522.82,-168.46 526.32,-178.46 529.82,-168.46 522.82,-168.46"/>
</g>
<!-- StatusModule -->
<g id="node15" class="node">
<title>StatusModule</title>
<polygon fill="#8dd3c7" stroke="black" points="1277.77,-149.8 1274.77,-153.8 1253.77,-153.8 1250.77,-149.8 1184.23,-149.8 1184.23,-113.8 1277.77,-113.8 1277.77,-149.8"/>
<text text-anchor="middle" x="1231" y="-127.6" font-family="Times,serif" font-size="14.00">StatusModule</text>
</g>
<!-- SharedModule&#45;&gt;StatusModule -->
<g id="edge16" class="edge">
<title>SharedModule&#45;&gt;StatusModule</title>
<path fill="none" stroke="black" d="M530.27,-85.09C530.27,-107.01 530.27,-140.8 530.27,-140.8 530.27,-140.8 1174.21,-140.8 1174.21,-140.8"/>
<polygon fill="black" stroke="black" points="1174.21,-144.3 1184.21,-140.8 1174.21,-137.3 1174.21,-144.3"/>
</g>
<!-- AppModule&#45;&gt;AppComponent  -->
<g id="edge5" class="edge">
<title>AppModule&#45;&gt;AppComponent </title>
<path fill="none" stroke="black" stroke-dasharray="1,5" d="M534.82,-214.91C534.82,-214.91 534.82,-233.79 534.82,-233.79"/>
<polygon fill="black" stroke="black" points="531.32,-233.79 534.82,-243.79 538.32,-233.79 531.32,-233.79"/>
</g>
<!-- AppComponent -->
<g id="node7" class="node">
<title>AppComponent</title>
<polygon fill="#ffffb3" stroke="black" points="395.94,-84.8 290.06,-84.8 290.06,-48.8 395.94,-48.8 395.94,-84.8"/>
<text text-anchor="middle" x="343" y="-62.6" font-family="Times,serif" font-size="14.00">AppComponent</text>
</g>
<!-- AppComponent&#45;&gt;CoreModule -->
<g id="edge6" class="edge">
<title>AppComponent&#45;&gt;CoreModule</title>
<path fill="none" stroke="black" d="M343,-84.83C343,-101.2 343,-122.8 343,-122.8 343,-122.8 425.59,-122.8 425.59,-122.8"/>
<polygon fill="black" stroke="black" points="425.59,-126.3 435.59,-122.8 425.59,-119.3 425.59,-126.3"/>
</g>
<!-- ShellComponent -->
<g id="node8" class="node">
<title>ShellComponent</title>
<polygon fill="#ffffb3" stroke="black" points="272.11,-84.8 161.89,-84.8 161.89,-48.8 272.11,-48.8 272.11,-84.8"/>
<text text-anchor="middle" x="217" y="-62.6" font-family="Times,serif" font-size="14.00">ShellComponent</text>
</g>
<!-- ShellComponent&#45;&gt;CoreModule -->
<g id="edge7" class="edge">
<title>ShellComponent&#45;&gt;CoreModule</title>
<path fill="none" stroke="black" d="M217,-84.91C217,-104.14 217,-131.8 217,-131.8 217,-131.8 425.74,-131.8 425.74,-131.8"/>
<polygon fill="black" stroke="black" points="425.74,-135.3 435.74,-131.8 425.74,-128.3 425.74,-135.3"/>
</g>
<!-- BlockDetailComponent -->
<g id="node10" class="node">
<title>BlockDetailComponent</title>
<polygon fill="#ffffb3" stroke="black" points="1140.48,-84.8 991.52,-84.8 991.52,-48.8 1140.48,-48.8 1140.48,-84.8"/>
<text text-anchor="middle" x="1066" y="-62.6" font-family="Times,serif" font-size="14.00">BlockDetailComponent</text>
</g>
<!-- BlockDetailComponent&#45;&gt;StatusModule -->
<g id="edge11" class="edge">
<title>BlockDetailComponent&#45;&gt;StatusModule</title>
<path fill="none" stroke="black" d="M1066,-84.83C1066,-101.2 1066,-122.8 1066,-122.8 1066,-122.8 1174.16,-122.8 1174.16,-122.8"/>
<polygon fill="black" stroke="black" points="1174.16,-126.3 1184.16,-122.8 1174.16,-119.3 1174.16,-126.3"/>
</g>
<!-- BlockListComponent -->
<g id="node11" class="node">
<title>BlockListComponent</title>
<polygon fill="#ffffb3" stroke="black" points="1774.05,-84.8 1637.95,-84.8 1637.95,-48.8 1774.05,-48.8 1774.05,-84.8"/>
<text text-anchor="middle" x="1706" y="-62.6" font-family="Times,serif" font-size="14.00">BlockListComponent</text>
</g>
<!-- BlockListComponent&#45;&gt;StatusModule -->
<g id="edge12" class="edge">
<title>BlockListComponent&#45;&gt;StatusModule</title>
<path fill="none" stroke="black" d="M1706,-85.09C1706,-107.01 1706,-140.8 1706,-140.8 1706,-140.8 1287.84,-140.8 1287.84,-140.8"/>
<polygon fill="black" stroke="black" points="1287.84,-137.3 1277.84,-140.8 1287.84,-144.3 1287.84,-137.3"/>
</g>
<!-- NodeDetailComponent -->
<g id="node12" class="node">
<title>NodeDetailComponent</title>
<polygon fill="#ffffb3" stroke="black" points="1619.86,-84.8 1474.14,-84.8 1474.14,-48.8 1619.86,-48.8 1619.86,-84.8"/>
<text text-anchor="middle" x="1547" y="-62.6" font-family="Times,serif" font-size="14.00">NodeDetailComponent</text>
</g>
<!-- NodeDetailComponent&#45;&gt;StatusModule -->
<g id="edge13" class="edge">
<title>NodeDetailComponent&#45;&gt;StatusModule</title>
<path fill="none" stroke="black" d="M1547,-84.91C1547,-104.14 1547,-131.8 1547,-131.8 1547,-131.8 1287.97,-131.8 1287.97,-131.8"/>
<polygon fill="black" stroke="black" points="1287.97,-128.3 1277.97,-131.8 1287.97,-135.3 1287.97,-128.3"/>
</g>
<!-- NodeListComponent -->
<g id="node13" class="node">
<title>NodeListComponent</title>
<polygon fill="#ffffb3" stroke="black" points="1455.93,-84.8 1322.07,-84.8 1322.07,-48.8 1455.93,-48.8 1455.93,-84.8"/>
<text text-anchor="middle" x="1389" y="-62.6" font-family="Times,serif" font-size="14.00">NodeListComponent</text>
</g>
<!-- NodeListComponent&#45;&gt;StatusModule -->
<g id="edge14" class="edge">
<title>NodeListComponent&#45;&gt;StatusModule</title>
<path fill="none" stroke="black" d="M1389,-84.83C1389,-101.2 1389,-122.8 1389,-122.8 1389,-122.8 1287.98,-122.8 1287.98,-122.8"/>
<polygon fill="black" stroke="black" points="1287.98,-119.3 1277.98,-122.8 1287.98,-126.3 1287.98,-119.3"/>
</g>
<!-- NodeStatusComponent -->
<g id="node14" class="node">
<title>NodeStatusComponent</title>
<polygon fill="#ffffb3" stroke="black" points="1303.88,-84.8 1158.12,-84.8 1158.12,-48.8 1303.88,-48.8 1303.88,-84.8"/>
<text text-anchor="middle" x="1231" y="-62.6" font-family="Times,serif" font-size="14.00">NodeStatusComponent</text>
</g>
<!-- NodeStatusComponent&#45;&gt;StatusModule -->
<g id="edge15" class="edge">
<title>NodeStatusComponent&#45;&gt;StatusModule</title>
<path fill="none" stroke="black" d="M1231,-84.91C1231,-84.91 1231,-103.79 1231,-103.79"/>
<polygon fill="black" stroke="black" points="1227.5,-103.79 1231,-113.79 1234.5,-103.79 1227.5,-103.79"/>
</g>
<!-- StatusRoutingModule -->
<g id="node16" class="node">
<title>StatusRoutingModule</title>
<polygon fill="#8dd3c7" stroke="black" points="968.39,-84.8 965.39,-88.8 944.39,-88.8 941.39,-84.8 829.61,-84.8 829.61,-48.8 968.39,-48.8 968.39,-84.8"/>
<text text-anchor="middle" x="899" y="-62.6" font-family="Times,serif" font-size="14.00">StatusRoutingModule</text>
</g>
<!-- StatusRoutingModule&#45;&gt;StatusModule -->
<g id="edge17" class="edge">
<title>StatusRoutingModule&#45;&gt;StatusModule</title>
<path fill="none" stroke="black" d="M899,-84.91C899,-104.14 899,-131.8 899,-131.8 899,-131.8 1174.14,-131.8 1174.14,-131.8"/>
<polygon fill="black" stroke="black" points="1174.14,-135.3 1184.14,-131.8 1174.14,-128.3 1174.14,-135.3"/>
</g>
</g>
</svg>
